<?xml version="1.0" encoding="UTF-8"?>
<svg id="weaviate_logos" data-name="weaviate logos" xmlns="http://www.w3.org/2000/svg" viewBox="0 0 712.32 196.64">
  <defs>
    <style>
      .cls-1 {
        fill: #61bd73;
      }

      .cls-2 {
        fill: #130c49;
      }

      .cls-3 {
        fill: #130c49;
      }
    </style>
  </defs>
  <g>
    <path class="cls-3" d="M655.88,99.35c1.82-1.6,2.74-4.3,2.74-8.05,0-2.32-.55-4.67-1.63-6.99-1.08-2.3-2.64-4.41-4.64-6.28-2.01-1.87-4.47-3.36-7.31-4.42-2.79-1.15-6-1.73-9.55-1.73-5.18,0-9.85,1.16-13.9,3.43-3.99,2.21-7.16,5.28-9.44,9.14-2.28,3.85-3.44,8.3-3.44,13.21,0,3.69.61,7.18,1.82,10.38,1.21,3.2,2.98,6.09,5.27,8.6,2.35,2.42,5.23,4.37,8.57,5.8,3.34,1.42,7.19,2.14,11.44,2.14,3.81,0,7.24-.43,10.2-1.28,3.05-.85,5.48-1.91,7.21-3.13,1.88-1.33,2.8-2.58,2.8-3.81,0-.62-.08-1.21-.24-1.76-.16-.55-.46-1.14-.91-1.75-.42-.82-1.02-1.37-1.79-1.64-.69-.33-1.43-.41-2.21-.24-.61.15-1.26.42-1.94.8-.01,0-.02.01-.03.02-.53.33-1.17.67-1.9,1-.74.34-1.63.68-2.65,1.02-1,.33-2.19.6-3.54.81-1.35.2-3,.31-4.91.31-2.53,0-5.11-.58-7.64-1.71-2.46-1.13-4.55-2.75-6.2-4.8-1.44-1.92-2.2-4.21-2.26-6.82h29.45c2.59,0,4.81-.76,6.61-2.26h.01ZM648.57,91.4c0,1.2-.23,1.98-.68,2.21-.36.2-1.09.44-2.58.44h-25.49c.06-2.21.72-4.23,1.96-6,1.38-1.98,3.29-3.55,5.68-4.68,2.46-1.2,5.21-1.81,8.15-1.81,2.53,0,4.78.47,6.69,1.4,1.97.92,3.53,2.15,4.65,3.66,1.09,1.42,1.63,2.99,1.63,4.79h0Z"/>
    <path class="cls-3" d="M597.81,72.83c-.75-.23-1.65-.34-2.67-.34l-9.15.14v-13.44c0-1.08-.11-1.96-.34-2.66-.26-.89-.82-1.57-1.68-2.02-.81-.49-1.9-.73-3.35-.73s-2.53.25-3.28.75c-.77.45-1.29,1.12-1.54,2-.23.77-.34,1.7-.34,2.77v13.36l-4.69-.05h0c-1.59,0-2.78.44-3.54,1.31-.74.85-1.11,2.13-1.11,3.89s.28,3.09.85,3.93c0,.01.02.02.02.04.69.89,1.89,1.34,3.57,1.34l4.9-.05v23.52c0,3.26.32,6.06.96,8.32.66,2.25,1.77,4.12,3.31,5.56,1.53,1.42,3.47,2.48,5.79,3.16,2.33.66,5.19.99,8.49.99.95,0,1.81-.12,2.55-.34.95-.19,1.66-.7,2.1-1.5.48-.83.72-1.96.72-3.46,0-1.42-.2-2.47-.6-3.22-.44-.8-1.1-1.35-1.97-1.62-.76-.23-1.73-.35-2.9-.35-1.55,0-2.89-.07-3.96-.21-.96-.12-1.75-.43-2.33-.9-.52-.48-.93-1.19-1.24-2.12-.26-1.08-.39-2.53-.39-4.3v-23.5l9.27.14c1.03,0,1.94-.12,2.7-.35.87-.27,1.53-.82,1.98-1.65.4-.82.59-1.93.59-3.41s-.23-2.58-.71-3.34c-.43-.87-1.12-1.43-1.99-1.62h0Z"/>
    <path class="cls-3" d="M555.95,72.66c-.69-.52-1.74-.77-3.22-.77-1.77,0-3.12.42-4.01,1.24-.85.78-1.24,2.07-1.16,3.84l.11,2.31c-.89-1-1.86-1.93-2.91-2.76-1.59-1.39-3.52-2.51-5.73-3.3-2.23-.87-4.94-1.32-8.07-1.32-3.35,0-6.57.7-9.57,2.08-2.91,1.37-5.54,3.28-7.81,5.66-2.27,2.39-4.07,5.21-5.36,8.39-1.21,3.11-1.82,6.47-1.82,10.01s.61,7.04,1.82,10.23c1.28,3.17,3.04,6.02,5.24,8.48,2.27,2.46,4.91,4.4,7.83,5.78,2.99,1.38,6.25,2.08,9.67,2.08s6.49-.56,8.95-1.66c2.42-1.16,4.41-2.48,5.93-3.96.7-.71,1.31-1.38,1.84-2.02l-.22,2.85v.13c.15,1.5.61,2.64,1.35,3.39,0,0,.02.02.03.02.83.77,2.08,1.14,3.81,1.14,1.46,0,2.54-.24,3.28-.74.78-.45,1.3-1.16,1.56-2.11.22-.83.34-1.79.34-2.83v-40.91c0-1.19-.11-2.21-.34-3.05-.25-.93-.76-1.67-1.52-2.19h0ZM547.03,98.14c0,3.12-.67,5.93-2,8.36-1.25,2.35-3.03,4.26-5.29,5.68-2.17,1.4-4.6,2.12-7.23,2.12-3.13,0-5.92-.68-8.28-2.02-2.32-1.42-4.16-3.32-5.48-5.67-1.32-2.43-2-5.2-2-8.25s.67-5.92,2-8.35c1.32-2.42,3.14-4.37,5.39-5.79,2.31-1.48,5.06-2.22,8.17-2.22,2.63,0,5.06.71,7.25,2.13,2.24,1.34,4.05,3.25,5.38,5.69,1.39,2.35,2.09,5.15,2.09,8.33h0Z"/>
    <g>
      <path class="cls-3" d="M495.39,72.54c-.75-.49-1.82-.73-3.28-.73s-2.63.2-3.46.61c-.79.44-1.32,1.11-1.58,1.98-.23.76-.34,1.67-.34,2.71v42.06c0,1.04.12,1.95.34,2.71.26.87.79,1.54,1.56,1.97.81.49,1.91.73,3.38.73s2.52-.2,3.23-.6c.87-.44,1.44-1.11,1.71-2,.23-.76.34-1.67.34-2.71v-41.96c0-1.11-.12-2.06-.34-2.82-.26-.87-.78-1.53-1.55-1.97h0Z"/>
      <path class="cls-3" d="M495.78,54.46c-.87-.48-2.07-.71-3.67-.71s-2.87.23-3.75.7c-.93.43-1.57,1.17-1.9,2.17-.3.84-.46,1.87-.46,3.06s.11,2.21.33,3.1c0,.02.01.04.01.05.33.99.95,1.79,1.85,2.36.01,0,.03.02.04.02.87.48,2.11.71,3.77.71s2.89-.23,3.77-.71c.93-.51,1.53-1.24,1.79-2.19.3-.9.45-1.95.45-3.13s-.15-2.23-.44-3.13c-.26-1.02-.86-1.79-1.79-2.3h0Z"/>
    </g>
    <path class="cls-3" d="M474.38,72.73c-2.19-1.1-3.88-1.21-5-.35-.99.76-1.89,2-2.72,3.72l-14.54,34.42-14.86-35.47c-.78-1.8-1.78-2.85-2.97-3.11-1.14-.32-2.49-.09-4.02.68-1.69.85-2.75,1.77-3.23,2.81-.52,1.04-.35,2.47.51,4.36l19.25,41.99s.01.03.02.04c.55,1.03,1.25,1.76,2.1,2.18.85.39,1.93.58,3.2.58,1.36,0,2.49-.24,3.35-.71.9-.49,1.57-1.24,1.96-2.19l19.14-41.26c.67-1.41,1-2.73,1-3.95,0-1.47-1.08-2.73-3.19-3.75h0Z"/>
    <path class="cls-3" d="M416.58,72.66c-.69-.52-1.74-.77-3.22-.77-1.77,0-3.12.42-4.01,1.24-.85.78-1.24,2.07-1.16,3.84l.11,2.31c-.89-1-1.86-1.93-2.91-2.76-1.59-1.39-3.52-2.51-5.73-3.3-2.23-.87-4.94-1.32-8.07-1.32-3.35,0-6.57.7-9.57,2.08-2.91,1.37-5.54,3.28-7.81,5.66-2.27,2.39-4.07,5.21-5.36,8.39-1.21,3.11-1.82,6.47-1.82,10.01s.61,7.04,1.82,10.23c1.28,3.17,3.04,6.02,5.24,8.48,2.27,2.46,4.91,4.4,7.83,5.78,2.99,1.38,6.25,2.08,9.67,2.08s6.49-.56,8.95-1.66c2.42-1.16,4.41-2.48,5.93-3.96.7-.71,1.31-1.38,1.84-2.02l-.22,2.85v.13c.15,1.5.61,2.64,1.35,3.39,0,.01.02.02.03.02.84.77,2.08,1.14,3.81,1.14,1.46,0,2.53-.24,3.28-.74.78-.45,1.3-1.16,1.56-2.11.22-.83.34-1.79.34-2.83v-40.91c0-1.19-.11-2.21-.34-3.05-.25-.93-.76-1.67-1.52-2.19h0ZM407.66,98.14c0,3.12-.67,5.93-2,8.36-1.25,2.35-3.03,4.26-5.28,5.68-2.17,1.4-4.6,2.12-7.23,2.12-3.13,0-5.92-.68-8.28-2.02-2.32-1.42-4.16-3.33-5.48-5.67-1.32-2.43-2-5.2-2-8.25s.67-5.93,2-8.35c1.32-2.42,3.13-4.37,5.39-5.79,2.31-1.48,5.06-2.22,8.17-2.22,2.63,0,5.06.71,7.25,2.13,2.24,1.34,4.05,3.25,5.38,5.69,1.39,2.35,2.09,5.16,2.09,8.33h0Z"/>
    <path class="cls-3" d="M352.32,78.03c-2.01-1.87-4.47-3.36-7.31-4.42-2.78-1.15-6-1.73-9.55-1.73-5.18,0-9.85,1.16-13.9,3.43-3.99,2.21-7.16,5.28-9.45,9.14-2.28,3.85-3.44,8.3-3.44,13.21,0,3.69.61,7.19,1.82,10.38,1.21,3.2,2.97,6.09,5.27,8.6,2.35,2.42,5.23,4.37,8.57,5.8,3.34,1.42,7.19,2.14,11.44,2.14,3.81,0,7.24-.43,10.2-1.28,3.05-.85,5.48-1.91,7.21-3.13,1.88-1.33,2.8-2.58,2.8-3.81,0-.62-.08-1.21-.23-1.76-.16-.56-.47-1.14-.91-1.75-.42-.82-1.02-1.37-1.79-1.64-.69-.33-1.43-.41-2.21-.24-.61.15-1.26.42-1.94.8-.01,0-.02.01-.03.02-.52.33-1.16.67-1.9,1-.74.34-1.63.68-2.65,1.02-1,.33-2.19.6-3.54.81-1.35.2-3,.31-4.91.31-2.53,0-5.11-.58-7.64-1.71-2.46-1.13-4.55-2.75-6.2-4.8-1.44-1.92-2.2-4.21-2.26-6.82h29.45c2.59,0,4.81-.76,6.61-2.26,1.82-1.6,2.74-4.3,2.74-8.05,0-2.32-.55-4.67-1.63-6.99-1.08-2.3-2.64-4.41-4.64-6.28h0ZM348.54,91.4c0,1.2-.23,1.98-.68,2.21-.36.2-1.09.44-2.58.44h-25.49c.06-2.21.72-4.23,1.96-6,1.38-1.98,3.29-3.55,5.68-4.68,2.47-1.2,5.21-1.81,8.15-1.81,2.53,0,4.78.47,6.69,1.4,1.97.92,3.53,2.15,4.65,3.66,1.09,1.42,1.63,2.99,1.63,4.79h0Z"/>
    <path class="cls-3" d="M300.31,72.46c-1.84-.7-3.36-.76-4.52-.17-1.06.58-1.91,1.77-2.6,3.63l-11.14,29.82-10.25-29.67c-.16-.64-.48-1.25-.95-1.81-.4-.56-.95-1.04-1.65-1.43-.67-.42-1.6-.62-2.84-.62-1.08,0-2,.21-2.73.61-.72.41-1.3.95-1.72,1.63-.29.52-.55,1.09-.78,1.69l-10.35,29.39-11.15-30.13c-.63-1.74-1.5-2.8-2.61-3.16-1.07-.41-2.48-.27-4.29.42-1.14.38-2,.84-2.62,1.4-.01.01-.02.02-.03.03-.6.6-.94,1.35-1.03,2.21v.07c0,.78.18,1.71.56,2.85,0,.01,0,.02.01.04l16.06,41.36c.15.66.37,1.3.67,1.89.02.03.03.06.06.09.41.58.95,1.05,1.58,1.36.72.41,1.68.61,2.83.61,1.07,0,1.91-.16,2.56-.48.7-.27,1.22-.76,1.57-1.46.37-.6.7-1.35.98-2.21l10.54-30.46,10.45,30.49c.29.72.61,1.42.97,2.08,0,.01.01.02.02.03.41.67.96,1.18,1.63,1.52.66.33,1.51.5,2.6.5s1.95-.2,2.61-.61c.74-.34,1.28-.82,1.61-1.41.37-.6.67-1.21.89-1.8l16.07-41.4c.78-1.9.87-3.37.28-4.49-.57-1.07-1.68-1.89-3.27-2.43h0Z"/>
  </g>
  <g>
    <path class="cls-1" d="M198.44,112.21v-32.97c0-3.21-1.76-6.19-4.62-7.8l-24.57-13.89c-4.12-2.33-9.3.56-9.3,5.2v35.13l-17.45-9.78c-9.34-5.23-20.84-5.21-30.17.04l-17.35,9.78v-35.15c0-4.63-5.17-7.53-9.29-5.2l-24.57,13.89c-2.86,1.62-4.62,4.59-4.62,7.8v33c0,4.63,2.43,8.93,6.43,11.41l22.37,13.87c5.82,3.61,13.33,3.32,18.83-.73l15.55-11.42c4.28-3.14,11.27-3.14,15.55,0l15.55,11.41c5.5,4.04,13.01,4.33,18.83.72l22.4-13.89c4.01-2.48,6.42-6.78,6.42-11.41h0Z"/>
    <path class="cls-2" d="M195.39,68.82l-24.57-13.89c-2.91-1.65-6.39-1.66-9.31-.02-2.92,1.63-4.67,4.56-4.67,7.84v29.88l-12.78-7.16c-10.27-5.76-23.02-5.74-33.28.04l-12.68,7.14v-29.89c0-3.27-1.74-6.21-4.67-7.84-2.91-1.63-6.4-1.62-9.31.02l-24.57,13.89c-3.81,2.15-6.17,6.14-6.17,10.42v33c0,5.69,2.94,10.91,7.88,13.96l22.37,13.88c3.13,1.95,6.79,2.98,10.55,2.98,4.26,0,8.46-1.36,11.84-3.84l15.55-11.42c3.19-2.35,8.59-2.35,11.79,0l15.55,11.41c6.51,4.77,15.5,5.13,22.39.86l22.4-13.89c4.84-3,7.76-8.08,7.87-13.66v-33.27c0-4.28-2.36-8.28-6.16-10.42h0ZM93.97,137c-2.49-.04-4.87-.72-6.91-1.97l-22.45-13.93c-3.12-1.94-4.99-5.25-4.99-8.86v-32.99c0-2.13,1.17-4.12,3.07-5.18l24.57-13.89c.46-.26.99-.4,1.54-.4s1.04.14,1.53.4c.46.25,1.53,1.03,1.53,2.59v68.47c0,2.12.74,4.13,2.1,5.76h0ZM103.29,133.63l-.1.06c-.56.42-1.2.63-1.89.63-1.54,0-3.2-1.18-3.2-3.1v-10.1l19.35-12.03c6.11-3.8,14-3.8,20.11,0l19.33,12.03.02,10.09c0,1.91-1.66,3.1-3.2,3.1-.67,0-1.44-.25-2.01-.68l-14.57-10.69c-5.41-3.98-13.89-3.98-19.3,0l-14.53,10.68ZM140.92,103.99c-8.15-5.06-18.68-5.06-26.83,0l-15.99,9.94v-14.27l15.8-8.9.06-.04c8.32-4.66,18.65-4.66,26.99,0l15.89,8.91.03,14.3-15.95-9.93ZM189.53,121.57l-21.59,13.39c-2.06,1.28-4.43,1.98-6.9,2.03,1.35-1.62,2.09-3.63,2.09-5.76l-.06-33.35v-35.13c0-1.54,1.07-2.33,1.53-2.59.48-.27,1.01-.4,1.53-.4s1.06.13,1.53.4l24.57,13.89c1.89,1.07,3.06,3.05,3.06,5.18v33.09c-.04,3.55-1.9,6.82-4.99,8.73l-.8.5h.03,0Z"/>
  </g>
</svg>