<svg xmlns="http://www.w3.org/2000/svg" viewBox="0 0 351.97 180"><defs><style>.cls-1{fill:#889499;}.cls-2{fill:#326d32;}</style></defs><g id="Layer_2" data-name="Layer 2"><g id="Layer_1-2" data-name="Layer 1"><path class="cls-1" d="M106.69,161.17l-8.15,18.62H95.1L87,161.17h3.51l6.4,14.93,6.53-14.93Z"/><path class="cls-1" d="M121.08,162.89a7.33,7.33,0,0,1,2,5.66v11.24h-3.19v-2.46a5.32,5.32,0,0,1-2.41,2,9.13,9.13,0,0,1-3.71.69,7.72,7.72,0,0,1-5-1.51,4.83,4.83,0,0,1-1.88-4,4.89,4.89,0,0,1,1.79-4q1.78-1.5,5.69-1.5h5.34v-.66a4.27,4.27,0,0,0-1.27-3.34,5.33,5.33,0,0,0-3.72-1.16,9.66,9.66,0,0,0-3.23.55,8.21,8.21,0,0,0-2.67,1.45l-1.41-2.53a10.23,10.23,0,0,1,3.45-1.77,14.37,14.37,0,0,1,4.25-.62A8.46,8.46,0,0,1,121.08,162.89Zm-3.36,13.65a4.9,4.9,0,0,0,2-2.44v-2.6h-5.2c-2.86,0-4.28,1-4.28,2.88a2.61,2.61,0,0,0,1.08,2.21,5,5,0,0,0,3,.81A6.28,6.28,0,0,0,117.72,176.54Z"/><path class="cls-1" d="M144.09,163.05a8.1,8.1,0,0,1,2.09,6v10.72h-3.37V169.46a5.78,5.78,0,0,0-1.3-4.08,4.91,4.91,0,0,0-3.73-1.36,5.81,5.81,0,0,0-4.32,1.59,6.24,6.24,0,0,0-1.58,4.59v9.59H128.5V161.17h3.24V164a6.52,6.52,0,0,1,2.76-2.21,9.54,9.54,0,0,1,3.95-.78A7.7,7.7,0,0,1,144.09,163.05Z"/><path class="cls-1" d="M154.7,178.77a9.05,9.05,0,0,1-3.5-3.39,10.16,10.16,0,0,1,0-9.8,8.87,8.87,0,0,1,3.5-3.37,10.44,10.44,0,0,1,5.07-1.22,9.74,9.74,0,0,1,4.52,1,7.28,7.28,0,0,1,3.07,3l-2.56,1.65a5.77,5.77,0,0,0-2.18-2,6.3,6.3,0,0,0-2.88-.67,6.79,6.79,0,0,0-3.29.81,5.8,5.8,0,0,0-2.28,2.3,7.56,7.56,0,0,0,0,6.89,5.74,5.74,0,0,0,2.28,2.3,6.68,6.68,0,0,0,3.29.81,6.17,6.17,0,0,0,2.88-.67,5.7,5.7,0,0,0,2.18-2l2.56,1.61a7.33,7.33,0,0,1-3.07,3,9.62,9.62,0,0,1-4.52,1A10.34,10.34,0,0,1,154.7,178.77Z"/><path class="cls-1" d="M173.55,178.77a8.81,8.81,0,0,1-3.46-3.39,10.23,10.23,0,0,1,0-9.8,8.63,8.63,0,0,1,3.46-3.37,10.77,10.77,0,0,1,10,0,8.84,8.84,0,0,1,3.44,3.37,10.3,10.3,0,0,1,0,9.8,9,9,0,0,1-3.44,3.39,10.7,10.7,0,0,1-10,0Zm8.2-2.55A5.86,5.86,0,0,0,184,173.9a7.65,7.65,0,0,0,0-6.85,5.81,5.81,0,0,0-2.23-2.3,6.79,6.79,0,0,0-6.43,0,5.86,5.86,0,0,0-2.25,2.3,7.48,7.48,0,0,0,0,6.85,5.91,5.91,0,0,0,2.25,2.32,6.64,6.64,0,0,0,6.43,0Z"/><path class="cls-1" d="M209.35,161.17v18.62h-3.2V177a6.83,6.83,0,0,1-2.69,2.23,8.34,8.34,0,0,1-3.63.79,8.12,8.12,0,0,1-5.87-2.06q-2.15-2.06-2.15-6.06V161.17h3.38V171.5a5.76,5.76,0,0,0,1.3,4.09,4.83,4.83,0,0,0,3.72,1.39,5.57,5.57,0,0,0,4.22-1.62A6.34,6.34,0,0,0,206,170.8v-9.63Z"/><path class="cls-1" d="M231.37,161.17l-8.15,18.62h-3.44l-8.15-18.62h3.51l6.4,14.93,6.53-14.93Z"/><path class="cls-1" d="M249.89,171.6H234.78a5.87,5.87,0,0,0,2.16,4,7.09,7.09,0,0,0,4.59,1.49,6.9,6.9,0,0,0,5.37-2.25l1.86,2.18a8.23,8.23,0,0,1-3.14,2.25,11.88,11.88,0,0,1-9.43-.44,8.61,8.61,0,0,1-3.53-3.39,9.65,9.65,0,0,1-1.25-4.92,9.84,9.84,0,0,1,1.21-4.88,8.58,8.58,0,0,1,3.34-3.39,9.48,9.48,0,0,1,4.79-1.22,9.29,9.29,0,0,1,4.76,1.22,8.41,8.41,0,0,1,3.27,3.39,10.25,10.25,0,0,1,1.18,5C250,170.84,249.93,171.18,249.89,171.6Zm-13.19-6.28a6,6,0,0,0-1.92,3.86h11.94a6,6,0,0,0-1.91-3.85,6.28,6.28,0,0,0-8.11,0Z"/><path class="cls-1" d="M259.58,161.84a9.36,9.36,0,0,1,4.18-.85v3.27a7.51,7.51,0,0,0-.77,0,5.67,5.67,0,0,0-4.3,1.63,6.47,6.47,0,0,0-1.56,4.65v9.28h-3.38V161.17H257v3.13A5.74,5.74,0,0,1,259.58,161.84Z"/><path class="cls-2" d="M230.28,143.1v3.24h-33.8v-2.53l20.8-20.66a28.83,28.83,0,0,0,5.52-7,13.42,13.42,0,0,0,1.44-6,9.08,9.08,0,0,0-3.2-7.37c-2.13-1.79-5.21-2.67-9.24-2.67a21.54,21.54,0,0,0-8.12,1.4,15.81,15.81,0,0,0-6,4.28l-2.53-2.24a18.41,18.41,0,0,1,7.13-5,25.86,25.86,0,0,1,9.8-1.76q7.24,0,11.52,3.51a11.64,11.64,0,0,1,4.29,9.49A16.2,16.2,0,0,1,226.2,117a31.71,31.71,0,0,1-6.32,8l-18.13,18Z"/><path class="cls-2" d="M245.28,143.63a19.78,19.78,0,0,1-6.82-8.68,33.19,33.19,0,0,1-2.42-13.2,33.24,33.24,0,0,1,2.42-13.21,19.83,19.83,0,0,1,6.82-8.68,17.9,17.9,0,0,1,20,0,19.83,19.83,0,0,1,6.82,8.68,33.24,33.24,0,0,1,2.42,13.21,33.19,33.19,0,0,1-2.42,13.2,19.78,19.78,0,0,1-6.82,8.68,17.9,17.9,0,0,1-20,0Zm18.2-2.81a16.5,16.5,0,0,0,5.51-7.45,31,31,0,0,0,2-11.62,31.07,31.07,0,0,0-2-11.63,16.5,16.5,0,0,0-5.51-7.45,14.38,14.38,0,0,0-16.38,0,16.5,16.5,0,0,0-5.51,7.45,31.07,31.07,0,0,0-2,11.63,31,31,0,0,0,2,11.62,16.5,16.5,0,0,0,5.51,7.45,14.33,14.33,0,0,0,16.38,0Z"/><path class="cls-2" d="M314.31,143.1v3.24H280.52v-2.53l20.79-20.66a28.83,28.83,0,0,0,5.52-7,13.42,13.42,0,0,0,1.44-6,9.08,9.08,0,0,0-3.2-7.37c-2.13-1.79-5.21-2.67-9.24-2.67a21.49,21.49,0,0,0-8.11,1.4,15.92,15.92,0,0,0-6,4.28l-2.53-2.24a18.41,18.41,0,0,1,7.13-5,25.86,25.86,0,0,1,9.8-1.76q7.25,0,11.53,3.51a11.66,11.66,0,0,1,4.28,9.49,16.32,16.32,0,0,1-1.68,7.24,31.79,31.79,0,0,1-6.33,8l-18.12,18Z"/><path class="cls-2" d="M347.72,122.55a12.66,12.66,0,0,1,4.25,10,13.74,13.74,0,0,1-2,7.34,13.18,13.18,0,0,1-5.86,5,22,22,0,0,1-9.38,1.83,28.12,28.12,0,0,1-10.05-1.79,17.7,17.7,0,0,1-7.31-4.82l1.83-2.74a17.23,17.23,0,0,0,6.5,4.36,23.65,23.65,0,0,0,9,1.69q6.53,0,10-2.92a10.76,10.76,0,0,0-.07-16q-3.57-2.88-10.75-2.88h-3.09V119l14.55-18.62H319.23V97.15h30.85v2.53l-14.76,18.9Q343.47,118.79,347.72,122.55Z"/><path d="M47.43,97.15,25.51,146.34H21.92L0,97.15H3.93L23.82,141.7,43.7,97.15Z"/><path d="M53.61,97.15h3.58v46H85.51v3.23H53.61Z"/><path d="M93,97.15h19.46a28.5,28.5,0,0,1,13.6,3.17,23,23,0,0,1,9.23,8.75,25.94,25.94,0,0,1,0,25.36,23.17,23.17,0,0,1-9.23,8.75,28.49,28.49,0,0,1-13.6,3.16H93Zm19.18,46a25.68,25.68,0,0,0,12-2.71,19.29,19.29,0,0,0,8-7.55,23.33,23.33,0,0,0,0-22.2,19.31,19.31,0,0,0-8-7.56,25.68,25.68,0,0,0-12-2.7H96.54v42.72Z"/><path d="M186.51,125.12a12,12,0,0,1,2.78,8.22,11.27,11.27,0,0,1-4.57,9.63q-4.58,3.36-13.56,3.37H149.24V97.15h20.51q8,0,12.47,3.27a10.84,10.84,0,0,1,4.47,9.31,11.29,11.29,0,0,1-2.22,7.1,12.15,12.15,0,0,1-6,4.14A13.64,13.64,0,0,1,186.51,125.12Zm-33.69-24.87v19.6h16.79q6.46,0,9.95-2.49a9.43,9.43,0,0,0,0-14.62q-3.48-2.49-9.95-2.49ZM182,140.75q3.69-2.49,3.69-7.69T182,125.4q-3.67-2.46-10.85-2.46H152.82v20.31h18.34Q178.33,143.25,182,140.75Z"/><path class="cls-2" d="M108.18,81.82l5-11.15h3.59l5,11.15h-4l-2.91-6.52-2.91,6.52Z"/><path class="cls-2" d="M108.18,93l5-11.15h3.59l5,11.15h-4l-2.91-6.51L111.93,93Z"/><path class="cls-2" d="M121.71,93l5-11.15h3.58l5,11.15h-4l-2.91-6.51L125.46,93Z"/><path class="cls-2" d="M121.71,81.82l5-11.15h3.58l5,11.15h-4l-2.91-6.52-2.9,6.52Z"/><path class="cls-2" d="M121.71,70.67l5-11.16h3.58l5,11.16h-4l-2.91-6.52-2.9,6.52Z"/><path class="cls-2" d="M135.23,81.82l5-11.15h3.58l5,11.15h-4l-2.9-6.52L139,81.82Z"/><path class="cls-2" d="M135.23,93l5-11.15h3.58l5,11.15h-4l-2.9-6.51L139,93Z"/><path class="cls-1" d="M121.7,70.66,90.19,0H86.61L45.16,93h3.9L78.19,27.73l3.71,8.33h3.15l3.44-7.73L92,36.06h3.14l3.71-8.34L118,70.66ZM93.52,31.13,90.06,23.4H86.93l-3.45,7.73-3.4-7.62L88.5,4.64,96.92,23.5Z"/></g></g></svg>