<svg xmlns="http://www.w3.org/2000/svg" viewBox="0 0 351.97 49.89"><defs><style>.cls-1{fill:#326d32;}</style></defs><g id="Layer_2" data-name="Layer 2"><g id="Layer_1-2" data-name="Layer 1"><path class="cls-1" d="M230.28,46.3v3.24h-33.8V47l20.8-20.66a29,29,0,0,0,5.52-7,13.45,13.45,0,0,0,1.44-6A9.1,9.1,0,0,0,221,6Q217.85,3.3,211.8,3.3a21.54,21.54,0,0,0-8.12,1.41,15.6,15.6,0,0,0-6,4.28l-2.53-2.25a18.5,18.5,0,0,1,7.13-5A25.86,25.86,0,0,1,212.08,0q7.24,0,11.52,3.51A11.64,11.64,0,0,1,227.89,13a16.2,16.2,0,0,1-1.69,7.24,31.7,31.7,0,0,1-6.32,8L201.75,46.3Z"/><path class="cls-1" d="M245.28,46.83a19.83,19.83,0,0,1-6.82-8.68A33.24,33.24,0,0,1,236,24.94a33.28,33.28,0,0,1,2.42-13.21,19.8,19.8,0,0,1,6.82-8.67,17.9,17.9,0,0,1,20,0,19.8,19.8,0,0,1,6.82,8.67,33.28,33.28,0,0,1,2.42,13.21,33.24,33.24,0,0,1-2.42,13.21,19.83,19.83,0,0,1-6.82,8.68,17.9,17.9,0,0,1-20,0ZM263.48,44A16.5,16.5,0,0,0,269,36.57a31.07,31.07,0,0,0,2-11.63,31.1,31.1,0,0,0-2-11.63,16.52,16.52,0,0,0-5.51-7.44,14.33,14.33,0,0,0-16.38,0,16.52,16.52,0,0,0-5.51,7.44,31.1,31.1,0,0,0-2,11.63,31.07,31.07,0,0,0,2,11.63A16.5,16.5,0,0,0,247.1,44a14.38,14.38,0,0,0,16.38,0Z"/><path class="cls-1" d="M314.31,46.3v3.24H280.52V47l20.79-20.66a29,29,0,0,0,5.52-7,13.45,13.45,0,0,0,1.44-6A9.1,9.1,0,0,0,305.07,6q-3.19-2.67-9.24-2.67a21.48,21.48,0,0,0-8.11,1.41,15.7,15.7,0,0,0-6,4.28l-2.53-2.25a18.5,18.5,0,0,1,7.13-5A25.86,25.86,0,0,1,296.11,0q7.25,0,11.53,3.51A11.66,11.66,0,0,1,311.92,13a16.32,16.32,0,0,1-1.68,7.24,31.77,31.77,0,0,1-6.33,8L285.79,46.3Z"/><path class="cls-1" d="M347.72,25.75A12.64,12.64,0,0,1,352,35.69,13.71,13.71,0,0,1,350,43a13.2,13.2,0,0,1-5.86,5,22,22,0,0,1-9.38,1.83,27.91,27.91,0,0,1-10.05-1.8,17.59,17.59,0,0,1-7.31-4.81l1.83-2.74a17.47,17.47,0,0,0,6.5,4.36,23.65,23.65,0,0,0,9,1.68q6.53,0,10-2.91a9.8,9.8,0,0,0,3.52-8,9.73,9.73,0,0,0-3.59-8Q341.16,24.8,334,24.8h-3.09V22.2L345.44,3.58H319.23V.35h30.85V2.88l-14.76,18.9Q343.47,22,347.72,25.75Z"/><path d="M47.43.35,25.51,49.54H21.92L0,.35H3.93L23.82,44.9,43.7.35Z"/><path d="M53.61.35h3.58V46.3H85.51v3.24H53.61Z"/><path d="M93,.35h19.46A28.61,28.61,0,0,1,126,3.51a23.17,23.17,0,0,1,9.23,8.75,24.35,24.35,0,0,1,3.31,12.68,24.39,24.39,0,0,1-3.31,12.69A23.08,23.08,0,0,1,126,46.37a28.5,28.5,0,0,1-13.6,3.17H93ZM112.14,46.3a25.68,25.68,0,0,0,12-2.7,19.29,19.29,0,0,0,8-7.55A21.71,21.71,0,0,0,135,24.94a21.68,21.68,0,0,0-2.81-11.1,19.29,19.29,0,0,0-8-7.55,25.68,25.68,0,0,0-12-2.7H96.54V46.3Z"/><path d="M186.51,28.32a12,12,0,0,1,2.78,8.22,11.25,11.25,0,0,1-4.57,9.62q-4.58,3.38-13.56,3.38H149.24V.35h20.51q8,0,12.47,3.27a10.84,10.84,0,0,1,4.47,9.31A11.24,11.24,0,0,1,184.47,20a12.11,12.11,0,0,1-6,4.15A13.64,13.64,0,0,1,186.51,28.32ZM152.82,3.44V23.05h16.79q6.46,0,9.95-2.5A8.47,8.47,0,0,0,183,13.21a8.39,8.39,0,0,0-3.47-7.27q-3.48-2.51-9.95-2.5ZM182,44c2.46-1.66,3.69-4.23,3.69-7.69s-1.23-6-3.69-7.66-6.07-2.46-10.85-2.46H152.82v20.3h18.34Q178.33,46.44,182,44Z"/></g></g></svg>