<?xml version="1.0" standalone="no"?>
<!DOCTYPE svg PUBLIC "-//W3C//DTD SVG 1.1//EN" "http://www.w3.org/Graphics/SVG/1.1/DTD/svg11.dtd">
<svg xmlns="http://www.w3.org/2000/svg" id="Layer_1" viewBox="0 0 1417.1094 474.19334" width="1417.109375" height="474.1933288574219"><defs><style>.cls-1{fill:#ff6200;}.cls-1,.cls-2{stroke-width:0px;}.cls-2{fill:#161d26;}</style></defs><path class="cls-2" d="M1232.14021,246.22183h46.3866c4.34937,0,7.53763-3.18823,7.53763-7.53317V108.04679c0-33.60296,12.75721-51.8509,36.24032-51.8509,21.45379,0,33.34065,15.64142,33.34065,43.74046v138.75231c0,4.34494,3.19041,7.53317,7.53763,7.53317h46.38888c4.34708,0,7.53749-3.18823,7.53749-7.53317V95.30054C1417.1094,36.49814,1389.85654.00006,1345.49912.00006c-27.54374,0-48.41806,14.77328-58.85522,41.13171h-2.3179l-5.7992-28.38767c-.87036-4.63359-3.76774-7.53097-8.1171-7.53097h-38.26949c-4.34937,0-7.53763,3.18598-7.53763,7.53097v225.94457c0,4.34494,3.18826,7.53317,7.53763,7.53317ZM1047.7591,125.71745c0-49.24434,14.49564-76.47306,40.58746-76.47306,26.38264,0,41.16923,27.22872,41.16923,76.47306s-14.78659,76.47309-41.16923,76.47309c-26.09182,0-40.58746-27.22872-40.58746-76.47309ZM983.97497,125.71745c0,71.83728,44.93905,125.71744,104.37159,125.71744,59.72564,0,104.95113-53.88016,104.95113-125.71744S1148.0722.00006,1088.34656.00006C1028.91402.00006,983.97497,53.87798,983.97497,125.71745ZM806.83631,245.35151c30.13533-10.47793,53.63556-14.77329,79.43872-14.77329,26.09182,0,45.80719,3.76549,74.79854,14.77329,5.7992,2.3179,10.14634,0,10.14634-6.08339v-33.31209c0-4.92444-2.3179-7.82182-6.66727-9.84887-24.64199-10.71698-46.67748-15.35279-74.79854-15.35279-6.09001,0-11.59833.57948-16.52717,1.4498l89.87595-123.40174c2.60872-3.47686,3.47901-6.95149,3.47901-11.00783V12.74409c0-4.34499-3.18819-7.53097-7.53756-7.53097h-152.4989c-4.34715,0-7.53756,3.18598-7.53756,7.53097v33.60292c0,4.34496,3.19041,7.53097,7.53756,7.53097h92.77554l-99.15415,138.75231c-2.60872,3.47686-3.47908,6.95371-3.47908,11.00783v35.63c0,6.08339,4.34604,8.1009,10.14856,6.08339ZM637.23964,172.06444c0-27.80819,19.71315-45.47885,51.31544-45.47885,5.2175,0,10.43716.57948,15.366,1.44977v15.3506c0,40.26579-13.04588,62.28144-37.11061,62.28144-17.97472,0-29.57083-13.0371-29.57083-33.60296ZM643.32743,251.4349c28.70269,0,49.57701-14.77331,60.01417-39.97496h2.3179l5.7992,27.22872c.87029,4.63579,3.76989,7.53317,8.11704,7.53317h38.26956c4.34937,0,7.53978-3.18823,7.53978-7.53317V92.98485C765.38507,32.44184,734.0736.00006,675.21838.00006,625.64131.00006,592.01192,22.59297,581.28395,63.43823c-1.44983,5.50391,1.1611,9.55803,6.08779,10.42835l40.30102,6.95149c4.92662.8681,7.82622-1.73843,9.27599-6.95149,5.21972-18.54102,16.81583-28.09904,34.21108-28.09904,22.03327,0,32.76124,14.19384,32.76124,43.74046v6.08336c-6.66942-1.44977-14.78652-2.02702-24.06251-2.02702-64.94308,0-105.82135,33.31207-105.82135,85.45161,0,43.16098,27.8324,72.41896,69.29022,72.41896ZM234.8306,246.22183h46.38663c4.34935,0,7.53758-3.18823,7.53758-7.53317V108.04679c0-33.60296,11.88696-51.8509,34.4997-51.8509,20.58569,0,31.60229,15.64142,31.60229,43.74046v138.75231c0,4.34494,3.18823,7.53317,7.53759,7.53317h46.38663c4.34937,0,7.53981-3.18823,7.53981-7.53317V108.04679c0-33.60296,11.88474-51.8509,34.49967-51.8509,20.5835,0,31.60232,15.64142,31.60232,43.74046v138.75231c0,4.34494,3.18823,7.53317,7.53759,7.53317h46.38663c4.34937,0,7.53759-3.18823,7.53759-7.53317V95.30054C543.88465,36.49814,517.50201.00006,474.01495.00006,447.63231.00006,426.758,14.19386,409.65135,43.44963h-2.32009C396.31462,15.93007,375.15164.00006,346.44892.00006,319.77544.00006,299.77144,14.77333,289.33428,41.13176h-2.32009l-5.79696-28.38767c-.87031-4.63359-3.76989-7.53097-8.11925-7.53097h-38.26737c-4.34938,0-7.5398,3.18598-7.5398,7.53097v225.94457c0,4.34494,3.19041,7.53317,7.5398,7.53317ZM63.20243,172.06444c0-27.80819,19.71317-45.47885,51.31549-45.47885,5.21747,0,10.43716.57948,15.366,1.44977v15.3506c0,40.26579-13.0459,62.28144-37.11064,62.28144-17.97474,0-29.57085-13.0371-29.57085-33.60296ZM69.29023,251.4349c28.70275,0,49.57706-14.77331,60.01422-39.97496h2.3179l5.79915,27.22872c.87032,4.63579,3.76989,7.53317,8.11705,7.53317h38.26959c4.34937,0,7.53758-3.18823,7.53758-7.53317V92.98485C191.34572,32.44184,160.03645.00006,101.18118.00006,51.60412.00006,17.97474,22.59297,7.24674,63.43823c-1.44979,5.50391,1.16115,9.55803,6.08779,10.42835l40.30105,6.95149c4.92664.8681,7.82622-1.73843,9.276-6.95149,5.21968-18.54102,16.8158-28.09904,34.21105-28.09904,22.03327,0,32.76128,14.19384,32.76128,43.74046v6.08336c-6.66947-1.44977-14.78652-2.02702-24.06474-2.02702C40.87832,93.56433,0,126.8764,0,179.01594c0,43.16098,27.83243,72.41896,69.29023,72.41896Z"/><path class="cls-1" d="M955.28323,282.7199c-7.82842-11.29865-38.2696-18.82956-61.75484-18.53877-24.64203,0-48.41583,6.08345-69.86968,17.37986-13.33677,7.24236-25.5019,15.34823-21.45374,24.62222,2.90695,6.6596,11.3052,6.66278,24.35325,4.0563,34.79063-7.53326,78.85713-8.11272,86.3947,2.31569,7.24896,10.7192-8.69648,51.85304-27.54161,81.977-6.95805,11.58732-9.85769,18.82956-4.05848,24.33343,1.44976,1.73848,3.47903,2.31794,5.79915,2.6066,6.95811,0,15.82155-7.08689,24.35343-14.77326,18.00645-16.22202,32.47039-36.20954,40.29875-59.09327,7.82623-22.01561,11.59617-53.00982,3.47909-64.88581ZM843.66268,342.97208c-69.00156,36.20954-175.11158,61.1203-287.89109,61.1203-127.27517,0-263.53775-31.57366-366.75037-114.70958-9.85547-7.82181-20.58346-15.64362-27.83243-9.84884-2.60872,2.02703-4.97025,6.38615-2.31791,14.48235,1.99651,6.0943,6.6673,13.61447,13.62538,22.30428,89.0056,109.78752,232.22624,157.8728,370.51807,157.8728,120.89875,0,237.73678-36.49808,311.95591-100.80656,12.7572-11.29641,19.42447-20.27725,19.42447-27.2287,0-2.89739-1.10927-5.25988-3.19042-7.53102-6.23057-6.79937-15.9455-1.73836-27.54161,4.34497Z"/></svg>