<svg width="633" height="181" viewBox="0 0 633 181" fill="none" xmlns="http://www.w3.org/2000/svg">
<path d="M138.657 96.0239C126.113 86.9006 106.136 81.8914 77.5803 81.8914C52.7008 81.8914 35.1982 78.902 25.5586 71.8749C18.5966 66.8007 15.4923 59.7393 15.4923 48.9788C15.4923 45.0636 16.8503 41.181 19.5318 37.4398C22.3778 33.4673 26.7367 29.6822 32.138 26.4938C37.9084 23.0874 44.683 20.972 52.2742 19.0766C60.271 17.0798 68.7841 16.0681 77.5803 16.0681C86.3765 16.0681 94.8897 17.0798 102.886 19.0766C110.478 20.972 117.252 23.0874 123.023 26.4938C128.426 29.6841 132.785 33.4692 135.631 37.4398C138.31 41.181 139.67 45.0636 139.67 48.9788H155.163C155.163 41.7605 152.829 34.8444 148.225 28.4179C144.077 22.6265 138.247 17.4911 130.901 13.1532C116.533 4.67066 97.598 0 77.5803 0C57.5627 0 38.6276 4.67066 24.2618 13.1532C16.9153 17.4911 11.0856 22.6265 6.93713 28.4179C2.33342 34.8425 0 41.7605 0 48.9788C0 64.7485 5.37451 76.3333 16.4315 84.3931C28.9516 93.5202 48.9539 98.5294 77.5803 98.5294C102.397 98.5294 119.878 101.521 129.543 108.55C136.545 113.643 139.668 120.703 139.668 131.44C139.668 135.355 138.31 139.238 135.629 142.979C132.783 146.952 128.424 150.737 123.021 153.925C117.25 157.331 110.476 159.447 102.884 161.342C94.8878 163.339 86.3746 164.351 77.5784 164.351C68.7822 164.351 60.2691 163.339 52.2723 161.342C44.6811 159.447 37.9065 157.331 32.1361 153.925C26.7329 150.735 22.374 146.95 19.5299 142.979C16.8503 139.238 15.4904 135.355 15.4904 131.44H0C0 138.658 2.33342 145.575 6.93713 152.001C11.0856 157.792 16.9153 162.928 24.2618 167.266C38.6276 175.746 57.5627 180.419 77.5803 180.419C97.598 180.419 116.533 175.748 130.899 167.266C138.245 162.928 144.075 157.792 148.224 152.001C152.827 145.576 155.161 138.658 155.161 131.44C155.161 115.684 149.763 104.099 138.657 96.02V96.0239Z" fill="#101010"/>
<path d="M24.2637 126.037C38.6295 134.518 57.5646 139.191 77.5822 139.191C97.5999 139.191 116.535 134.52 130.901 126.037C131.128 125.904 131.35 125.766 131.576 125.63C130.549 119.609 127.881 116.803 125.044 114.741C124.241 114.158 123.348 113.601 122.369 113.076C116.742 116.304 110.195 118.865 102.886 120.69C94.8897 122.686 86.3765 123.698 77.5803 123.698C68.7841 123.698 60.271 122.686 52.2742 120.69C44.683 118.794 37.9084 116.105 32.138 112.699C26.7348 109.508 22.3759 105.723 19.5318 101.753C17.5178 98.9411 16.2498 96.0492 15.7448 93.1248C14.4155 92.3119 13.1398 91.4646 11.9253 90.5791C7.83416 87.5973 4.3589 84.1488 1.53393 80.2776C0.514499 83.51 0 86.8303 0 90.2138C0 97.432 2.33342 104.348 6.93713 110.775C11.0856 116.566 16.9153 121.701 24.2618 126.039L24.2637 126.037Z" fill="#101010"/>
<path d="M130.9 54.3836C116.537 45.903 97.5995 41.2304 77.5819 41.2304C57.5642 41.2304 38.6292 45.9011 24.2633 54.3836C24.0338 54.5194 23.8101 54.6571 23.5824 54.7948C24.6 60.8387 27.2509 63.6388 30.0663 65.6911C30.8734 66.2783 31.7724 66.8387 32.7593 67.3685C38.3939 64.1304 44.9542 61.5617 52.2758 59.7332C60.2725 57.7365 68.7857 56.7247 77.5819 56.7247C86.3781 56.7247 94.8912 57.7365 102.888 59.7332C110.479 61.6287 117.254 64.3178 123.024 67.7242C128.427 70.9145 132.786 74.6996 135.632 78.6702C137.658 81.4971 138.926 84.4043 139.427 87.346C140.726 88.1416 141.971 88.9698 143.16 89.8362C147.28 92.8333 150.777 96.2952 153.619 100.184C154.646 96.9378 155.164 93.6079 155.164 90.2092C155.164 82.9909 152.831 76.0748 148.227 69.6483C144.078 63.8569 138.249 58.7215 130.902 54.3836H130.9Z" fill="#101010"/>
<path d="M259.629 141.883C246.284 141.883 235.728 139.123 227.962 133.602C220.196 127.971 215.93 120.132 215.164 110.084H230.587C231.353 116.488 234.142 121.236 238.955 124.327C243.768 127.419 250.823 128.965 260.121 128.965C276.857 128.965 285.225 123.554 285.225 112.734C285.225 108.317 283.912 104.95 281.287 102.631C278.771 100.202 274.45 98.4353 268.325 97.3311L246.831 93.3563C229.001 90.0438 220.086 81.4315 220.086 67.5194C220.086 58.5759 223.423 51.5094 230.095 46.3199C236.768 41.1305 245.901 38.5358 257.496 38.5358C269.419 38.5358 278.935 41.1857 286.045 46.4856C293.264 51.7854 297.421 59.1832 298.515 68.6787H283.42C282.217 62.8268 279.482 58.5207 275.216 55.7603C270.95 52.8896 264.989 51.4542 257.332 51.4542C250.003 51.4542 244.37 52.7791 240.432 55.4291C236.494 57.9686 234.525 61.7227 234.525 66.6913C234.525 70.4454 235.783 73.4266 238.299 75.6348C240.924 77.7327 245.135 79.3337 250.933 80.4378L272.263 84.4127C281.67 86.1793 288.561 89.2709 292.936 93.6875C297.312 98.104 299.499 104.066 299.499 111.575C299.499 121.181 296.054 128.633 289.163 133.933C282.271 139.233 272.427 141.883 259.629 141.883Z" fill="#101010"/>
<path d="M312.402 179.645V57.0853H304.199V40.5232H321.263V55.4291H328.154C331.435 49.9084 335.865 45.7127 341.444 42.8419C347.022 39.9711 353.75 38.5358 361.625 38.5358C371.361 38.5358 379.674 40.6336 386.565 44.8293C393.456 48.9147 398.707 54.8218 402.316 62.5508C406.035 70.2797 407.895 79.4993 407.895 90.2095C407.895 100.92 406.09 110.139 402.48 117.868C398.871 125.597 393.675 131.559 386.893 135.755C380.221 139.84 372.236 141.883 362.938 141.883C354.953 141.883 347.952 140.282 341.936 137.08C336.029 133.768 331.545 129.075 328.482 123.002H327.826V179.645H312.402ZM359.492 128.633C369.884 128.633 377.978 125.266 383.776 118.531C389.573 111.795 392.472 102.355 392.472 90.2095C392.472 78.0639 389.573 68.6235 383.776 61.8883C377.978 55.153 369.884 51.7854 359.492 51.7854C349.976 51.7854 342.319 54.5458 336.522 60.0665C330.724 65.5872 327.826 72.9297 327.826 82.094V98.3249C327.826 107.489 330.724 114.832 336.522 120.352C342.319 125.873 349.976 128.633 359.492 128.633Z" fill="#101010"/>
<path d="M422.327 139.896V40.5232H437.751V139.896H422.327ZM430.039 29.7745C427.304 29.7745 424.953 28.836 422.984 26.9589C421.124 24.9715 420.194 22.5976 420.194 19.8372C420.194 17.0769 421.124 14.7582 422.984 12.8811C424.953 10.8937 427.304 9.89997 430.039 9.89997C432.774 9.89997 435.071 10.8937 436.93 12.8811C438.899 14.7582 439.884 17.0769 439.884 19.8372C439.884 22.5976 438.899 24.9715 436.93 26.9589C435.071 28.836 432.774 29.7745 430.039 29.7745Z" fill="#101010"/>
<path d="M461.749 139.896V57.0853H453.545V40.5232H470.609V58.7415H477.501C480.345 52.8896 484.61 48.3074 490.298 44.995C496.096 41.5721 502.78 39.8607 510.655 39.8607V53.1104H509.988C499.706 53.1104 491.666 56.202 485.868 62.3852C480.071 68.5683 477.172 76.9598 477.172 87.5595V139.896H461.749Z" fill="#101010"/>
<path d="M546.092 141.718C535.154 141.718 526.513 138.957 520.168 133.436C513.824 127.805 510.652 120.573 510.652 111.74C510.652 102.245 513.715 94.902 519.84 89.7126C526.075 84.5231 535.045 81.9284 546.749 81.9284H582.189V77.291C582.189 60.2873 573.165 51.7854 555.117 51.7854C540.459 51.7854 531.654 57.4165 528.7 68.6787H512.949C514.48 59.1832 519.02 51.7854 526.567 46.4856C534.224 41.1857 543.905 38.5358 555.609 38.5358C568.954 38.5358 579.181 41.793 586.291 48.3074C593.401 54.7114 596.956 63.9861 596.956 76.1317V123.334H604.504V139.896H587.44V124.99H580.548C577.158 130.069 572.454 134.154 566.438 137.246C560.422 140.227 553.64 141.718 546.092 141.718ZM548.061 128.799C554.296 128.799 559.984 127.474 565.125 124.824C570.376 122.174 574.532 118.641 577.595 114.224C580.658 109.698 582.189 104.729 582.189 99.3186V93.8531H547.897C532.693 93.8531 525.091 99.5946 525.091 111.078C525.091 116.488 527.114 120.794 531.161 123.996C535.318 127.198 540.951 128.799 548.061 128.799Z" fill="#101010"/>
<path d="M617.368 139.896V0.774216H632.791V139.896H617.368Z" fill="#101010"/>
</svg>
